<svg version="1.2" xmlns="http://www.w3.org/2000/svg" viewBox="0 0 802 213" width="802" height="213">
	<style>
		.s0 { fill: #00bcff } 
		.s1 { fill: #ffffff } 
		.s2 { fill: #0a0080 } 
	</style>
	<path class="s0" d="m152.38 9.94c-77.83 0-140.91 40.36-140.91 90.15 0 49.79 63.09 94.05 140.91 94.05 77.82 0 140.91-44.27 140.91-94.05 0-49.78-63.09-90.15-140.91-90.15z"/>
	<path class="s1" d="m106.53 72.22c-0.07 0.14-1.45 1.56-0.55 2.71 2.18 2.78 8.91 4.38 15.72 2.85 4.05-0.91 9.25-5.04 14.28-9.03 5.45-4.33 10.86-8.67 16.3-10.39 5.76-1.83 9.45-1.05 11.89-0.31 2.67 0.8 5.82 2.56 10.84 6.32 9.45 7.1 47.43 40.26 54 45.99 5.28-2.39 30.47-12.56 62.39-19.6-2.78-17.02-13.01-33.25-28.72-45.99-21.89 9.19-50.42 14.7-76.58 1.93-0.13-0.05-14.29-6.75-28.25-6.42-20.75 0.48-29.74 9.46-39.25 18.97l-12.05 12.99z"/>
	<path class="s1" d="m227.44 113.97c-0.45-0.4-44.67-39.09-54.69-46.62-5.8-4.35-9.02-5.46-12.41-5.89-1.76-0.23-4.2 0.1-5.9 0.57-4.66 1.27-10.75 5.34-16.16 9.63-5.6 4.46-10.88 8.66-15.79 9.76-6.26 1.4-13.91-0.25-17.4-2.61-1.41-0.95-2.41-2.05-2.89-3.16-1.29-2.99 1.09-5.38 1.48-5.78l12.2-13.2q2.12-2.12 4.31-4.23c-3.94 0.51-7.58 1.52-11.12 2.5-4.42 1.24-8.68 2.42-12.98 2.42-1.8 0-11.42-1.58-13.25-2.07-11.05-3.02-23.56-5.97-38.04-12.73-17.35 12.91-28.65 28.77-32 46.56 2.49 0.66 9.02 2.15 10.71 2.52 39.26 8.73 51.49 17.72 53.71 19.6 2.4-2.67 5.87-4.36 9.73-4.36 4.35 0 8.26 2.19 10.64 5.56 2.25-1.78 5.35-3.3 9.36-3.29 1.82 0 3.71 0.34 5.62 0.98 4.43 1.52 6.72 4.47 7.9 7.14 1.48-0.67 3.31-1.17 5.46-1.16 2.12 0 4.32 0.48 6.53 1.44 7.24 3.11 8.36 10.22 7.71 15.58q0.78-0.08 1.56-0.08c8.58 0 15.56 6.98 15.56 15.57 0 2.66-0.68 5.16-1.86 7.35 2.34 1.31 8.29 4.28 13.52 3.62 4.17-0.53 5.76-1.95 6.32-2.76 0.39-0.55 0.8-1.2 0.42-1.66l-11.08-12.3c0 0-1.82-1.73-1.22-2.39 0.62-0.68 1.75 0.3 2.55 0.96 5.64 4.71 12.52 11.81 12.52 11.81 0.12 0.08 0.57 0.98 3.12 1.43 2.19 0.39 6.07 0.17 8.76-2.04 0.67-0.56 1.35-1.25 1.93-1.97q-0.07 0.06-0.13 0.1c2.84-3.63-0.32-7.29-0.32-7.29l-12.93-14.52c0 0-1.85-1.71-1.22-2.4 0.56-0.6 1.75 0.3 2.56 0.98 4.09 3.42 9.88 9.23 15.42 14.66 1.09 0.79 5.96 3.8 12.41-0.43 3.92-2.57 4.7-5.73 4.59-8.1-0.27-3.15-2.73-5.4-2.73-5.4l-17.66-17.76c0 0-1.87-1.59-1.21-2.4 0.54-0.68 1.75 0.3 2.55 0.96 5.62 4.71 20.86 18.68 20.86 18.68 0.22 0.15 5.48 3.9 11.99-0.24 2.33-1.49 3.81-3.73 3.94-6.34 0.22-4.52-2.96-7.2-2.95-7.2z"/>
	<path class="s1" d="m141.76 136.48c-2.74-0.03-5.74 1.6-6.13 1.36-0.22-0.14 0.17-1.24 0.42-1.88 0.27-0.63 3.87-11.48-4.92-15.25-6.73-2.89-10.85 0.36-12.26 1.83-0.37 0.38-0.54 0.35-0.58-0.13-0.14-1.96-1.01-7.24-6.82-9.02-8.3-2.54-13.64 3.25-14.99 5.35-0.61-4.73-4.61-8.4-9.5-8.41-5.32 0-9.64 4.3-9.65 9.63 0 5.32 4.31 9.64 9.64 9.64 2.59 0 4.93-1.03 6.66-2.69q0.09 0.06 0.05 0.32c-0.41 2.39-1.15 11.04 7.92 14.57 3.64 1.41 6.73 0.36 9.29-1.43 0.76-0.54 0.89-0.31 0.78 0.41-0.33 2.23 0.09 6.99 6.77 9.7 5.08 2.07 8.09-0.04 10.07-1.87 0.86-0.78 1.09-0.65 1.14 0.56 0.24 6.44 5.59 11.56 12.09 11.57 6.7 0 12.13-5.41 12.13-12.1 0-6.7-5.42-12.06-12.12-12.13z"/>
	<path class="s2" d="m152.35 6.21c-79.31 0-143.6 42.18-143.6 93.92 0 1.34-0.02 5.03-0.02 5.5 0 54.9 56.19 99.35 143.6 99.35 87.41 0 143.61-44.45 143.61-99.34v-5.51c0-51.74-64.29-93.92-143.59-93.92zm137.12 83.51c-31.21 6.94-54.49 17.01-60.32 19.61-13.62-11.89-45.1-39.26-53.63-45.66-4.87-3.67-8.2-5.6-11.12-6.47-1.31-0.4-3.12-0.85-5.45-0.85q-3.27 0-6.93 1.17c-5.51 1.75-11 6.11-16.31 10.33l-0.27 0.22c-4.95 3.93-10.06 8-13.93 8.86-1.69 0.38-3.43 0.58-5.16 0.58-4.34 0-8.23-1.26-9.69-3.12q-0.36-0.46 0.48-1.52l0.07-0.1 11.99-12.91c9.39-9.39 18.25-18.25 38.66-18.72q0.51-0.02 1.02-0.02c12.7 0.01 25.4 5.69 26.83 6.36 11.91 5.81 24.21 8.76 36.56 8.77 12.85 0 26.11-3.17 40.05-9.58 14.56 12.24 24.21 26.99 27.15 43.06zm-137.1-77.97c42.1 0 79.76 12.07 105.09 31.07-12.24 5.3-23.91 7.97-35.17 7.97-11.52-0.01-23.03-2.78-34.21-8.23-0.59-0.28-14.61-6.89-29.2-6.9q-0.58 0-1.15 0.01c-17.14 0.4-26.8 6.49-33.29 11.82-6.31 0.16-11.76 1.68-16.61 3.03-4.33 1.2-8.06 2.24-11.7 2.24-1.5 0-4.2-0.14-4.44-0.15-4.18-0.13-25.18-5.28-41.95-11.61 25.27-17.96 61.89-29.26 102.64-29.26zm-107.61 33.01c17.51 7.16 38.76 12.7 45.48 13.13 1.87 0.12 3.87 0.34 5.87 0.34 4.46 0 8.91-1.25 13.21-2.45 2.54-0.71 5.35-1.49 8.3-2.05q-1.18 1.16-2.37 2.35l-12.17 13.17c-0.96 0.97-3.04 3.55-1.67 6.73 0.54 1.28 1.65 2.51 3.2 3.55 2.9 1.95 8.1 3.28 12.92 3.28 1.83 0 3.57-0.18 5.15-0.54 5.11-1.14 10.46-5.41 16.13-9.92 4.52-3.59 10.94-8.15 15.86-9.49 1.38-0.37 3.06-0.61 4.42-0.61q0.62 0 1.14 0.07c3.24 0.41 6.38 1.51 11.99 5.72 10 7.51 54.22 46.2 54.65 46.58 0.03 0.02 2.85 2.46 2.65 6.5-0.11 2.26-1.36 4.26-3.54 5.65q-2.84 1.8-5.8 1.81c-2.96 0-4.99-1.39-5.13-1.48-0.16-0.13-15.31-14.03-20.89-18.7-0.89-0.74-1.75-1.4-2.62-1.4-0.47 0-0.88 0.2-1.16 0.55-0.88 1.08 0.1 2.58 1.26 3.56l17.7 17.8c0 0 2.21 2.06 2.45 4.79 0.14 2.95-1.27 5.42-4.2 7.34q-3.15 2.07-6.27 2.07c-2.72 0-4.63-1.24-5.05-1.53l-2.54-2.5c-4.64-4.57-9.43-9.29-12.94-12.21-0.86-0.71-1.77-1.37-2.64-1.37q-0.66 0-1.12 0.48c-0.4 0.44-0.68 1.24 0.32 2.57 0.4 0.55 0.89 1 0.89 1l12.91 14.51c0.1 0.13 2.66 3.17 0.29 6.19l-0.46 0.58q-0.59 0.64-1.2 1.16c-2.2 1.81-5.14 2-6.31 2q-0.95 0-1.75-0.15-1.91-0.34-2.55-1.07l-0.16-0.16c-0.7-0.73-7.21-7.38-12.6-11.87-0.71-0.6-1.6-1.34-2.51-1.34q-0.68 0-1.17 0.52c-1.06 1.17 0.54 2.91 1.22 3.55l11.01 12.15q-0.02 0.17-0.41 0.74c-0.4 0.55-1.73 1.88-5.73 2.38q-0.73 0.09-1.46 0.09c-4.12 0-8.52-2-10.79-3.2 1.03-2.18 1.57-4.58 1.57-6.98 0-9.07-7.36-16.44-16.43-16.45q-0.3 0-0.59 0.01c0.29-4.14-0.29-11.98-8.34-15.43-2.32-1-4.63-1.52-6.87-1.52q-2.65 0-5.04 0.91c-1.67-3.24-4.44-5.6-8.04-6.83q-3.01-1.04-5.9-1.04c-3.35 0-6.44 0.99-9.19 2.94-2.64-3.28-6.62-5.22-10.81-5.22-3.67 0-7.2 1.47-9.81 4.06-3.43-2.62-17.03-11.26-53.44-19.53-1.74-0.39-5.69-1.52-8.17-2.25 3.41-16.34 13.8-31.27 29.2-43.52zm107.61 143.66c-76.26 0-138.08-39.55-138.08-88.33 0-1.96 0.14-3.91 0.33-5.84 0.61 0.15 6.67 1.59 7.92 1.88 37.19 8.26 49.48 16.85 51.56 18.48-0.7 1.69-1.07 3.51-1.07 5.35 0 7.69 6.25 13.95 13.93 13.95q1.29 0 2.56-0.24c1.16 5.66 4.86 9.95 10.51 12.15q2.48 0.95 4.97 0.96 1.6 0 3.17-0.39c1.05 2.65 3.39 5.96 8.65 8.09 1.84 0.74 3.68 1.13 5.47 1.13q2.2-0.01 4.25-0.76c2.52 6.13 8.51 10.2 15.19 10.2 4.43 0 8.68-1.8 11.78-4.99 2.65 1.48 8.25 4.15 13.91 4.16 0.73 0 1.41-0.05 2.11-0.13 5.62-0.71 8.23-2.91 9.43-4.62q0.33-0.45 0.58-0.95c1.32 0.38 2.78 0.69 4.46 0.7 3.07 0 6.01-1.05 8.99-3.21 2.93-2.11 5.01-5.14 5.31-7.72q0-0.05 0.01-0.11 1.49 0.3 3.01 0.3c3.16 0 6.27-0.98 9.24-2.93 5.73-3.75 6.72-8.66 6.63-11.87q1.52 0.32 3.05 0.32c2.96 0 5.88-0.89 8.65-2.66 3.55-2.27 5.69-5.75 6.02-9.79 0.21-2.75-0.47-5.53-1.91-7.91 9.58-4.13 31.48-12.12 57.27-17.93q0.17 2.19 0.17 4.41c0 48.78-61.82 88.33-138.07 88.33zm-40.07-48.88l-0.39-0.35h-0.4c-0.32 0-0.66 0.13-1.11 0.45-1.86 1.31-3.63 1.94-5.44 1.94q-1.51 0-3.04-0.59c-8.44-3.29-7.78-11.25-7.36-13.65q0.09-0.73-0.37-1.12l-0.6-0.49-0.56 0.53c-1.65 1.59-3.8 2.45-6.06 2.45-4.83 0-8.77-3.93-8.76-8.77 0-4.83 3.94-8.76 8.78-8.75 4.37 0 8.09 3.28 8.64 7.65l0.3 2.35 1.29-1.99c0.14-0.23 3.69-5.59 10.2-5.58q1.87 0 3.81 0.6c5.19 1.58 6.07 6.29 6.2 8.25 0.09 1.14 0.91 1.2 1.06 1.2 0.45 0 0.78-0.28 1.01-0.53 0.98-1.02 3.11-2.72 6.45-2.72q2.3 0 4.83 1.09c8.25 3.54 4.51 14.02 4.47 14.13-0.71 1.74-0.74 2.5-0.07 2.95l0.32 0.15h0.24c0.37 0 0.83-0.16 1.6-0.42 1.12-0.39 2.81-0.97 4.4-0.97 6.21 0.07 11.26 5.13 11.26 11.26 0 6.2-5.06 11.24-11.27 11.24-6.07 0-11.01-4.73-11.23-10.74-0.02-0.52-0.07-1.88-1.23-1.88-0.47 0-0.89 0.29-1.36 0.72-1.34 1.24-3.04 2.49-5.52 2.49q-1.7 0-3.64-0.79c-6.41-2.6-6.5-7-6.24-8.77 0.07-0.47 0.09-0.96-0.23-1.35z"/>
	<g>
		<path class="s2" d="m788.26 35.12q-7.82-9.8-23.75-9.8-15.93 0-23.74 9.8-7.83 9.8-7.83 23.16c0 8.91 2.61 16.81 7.83 23.26q7.82 9.65 23.74 9.65 15.92 0 23.75-9.65 7.83-9.66 7.82-23.26c0-9.07-2.6-16.63-7.82-23.16zm-12.92 37.48q-3.79 5.03-10.89 5.04-7.1-0.01-10.91-5.04-3.82-5.03-3.82-14.32 0-9.28 3.82-14.29 3.83-5.01 10.91-5.01 7.08 0 10.89 5.01 3.8 5.02 3.8 14.29 0 9.28-3.8 14.32z"/>
		<path class="s2" d="m654.98 29.65q-7.93-4.02-18.15-4.03-15.71 0-22.17 8.18-4.05 5.24-4.58 13.37h15.65q0.57-3.59 2.31-5.69 2.42-2.84 8.23-2.84 5.19 0 7.88 1.45 2.67 1.45 2.68 5.26 0 3.12-3.49 4.61-1.95 0.85-6.48 1.42l-5.55 0.68q-9.46 1.2-14.32 3.99-8.88 5.12-8.88 16.55-0.01 8.81 5.52 13.61c3.67 3.21 8.34 4.55 13.98 4.81 35.37 1.59 34.98-18.64 35.3-22.84v-23.27q-0.01-11.2-7.93-15.25zm-8.22 35.32q-0.17 8.13-4.64 11.2-4.48 3.07-9.78 3.07-3.36-0.01-5.7-1.85-2.34-1.85-2.34-6.01 0-4.65 3.83-6.88 2.26-1.31 7.45-2.2l3.69-0.69q2.75-0.53 4.34-1.13 1.6-0.57 3.13-1.55v6.03z"/>
		<path class="s2" d="m574.32 39.48q6.06 0 8.94 3.75 1.97 2.77 2.45 6.24h17.45q-1.42-13.21-9.24-18.43-7.82-5.21-20.07-5.21-14.42 0-22.61 8.84-8.19 8.85-8.2 24.75 0 14.08 7.42 22.93 7.42 8.84 23.14 8.84 15.73 0.01 23.76-10.61 5.03-6.57 5.62-13.94h-17.39q-0.53 4.88-3.06 7.94-2.5 3.05-8.5 3.06-8.45 0-11.5-7.72-1.69-4.12-1.69-10.91c0-4.53 0.57-8.54 1.69-11.43q3.18-8.09 11.79-8.1z"/>
		<path class="s2" d="m538.36 25.83c-35.85 0-33.72 31.73-33.72 31.73v32.24h16.27v-30.23q0.01-7.43 1.86-11.01 3.35-6.35 13.1-6.35 0.74 0.01 1.92 0.07 1.18 0.06 2.73 0.23v-16.55q-1.09-0.06-1.39-0.1-0.31-0.03-0.77-0.03z"/>
		<path class="s2" d="m491.6 37.85q-4.22-6.24-10.68-9.15-6.46-2.88-14.52-2.88-13.58 0-22.1 8.56-8.51 8.57-8.52 24.63 0 17.14 9.44 24.74 9.43 7.6 21.76 7.61 14.94 0 23.24-9.02 4.48-4.74 5.65-9.38h-17.26q-1.01 1.48-2.22 2.46c-2.3 1.89-5.42 2.47-9.09 2.47-3.47 0-6.2-0.52-8.66-2.07-4.06-2.5-6.35-6.72-6.59-12.91h45.01q0.1-8.01-0.54-12.27-1.12-7.26-4.92-12.77zm-39.15 14.38q0.88-6.02 4.3-9.56 3.43-3.53 9.65-3.53 5.72 0 9.59 3.34 3.85 3.34 4.3 9.75c0 0-27.83 0-27.84 0z"/>
		<path class="s2" d="m403.46 25.61c-7.55 0-14.08 3.31-18.47 8.61-4.17-5.3-10.59-8.61-18.48-8.61-15.89 0-26.13 11.67-26.13 27.12v37.06h14.87v-37.41c0-6.83 4.62-11.55 11.27-11.55 9.8 0 10.81 8.13 10.81 11.55v37.41h14.87v-37.41c0-6.83 4.73-11.55 11.26-11.55 9.8 0 10.93 8.13 10.93 11.55v37.41h14.85v-37.06c0-15.93-9.56-27.12-25.79-27.12z"/>
		<path class="s2" d="m711.71 17.7l-0.02 17.43q-2.71-4.38-7.08-6.83-4.35-2.47-9.98-2.47-12.18 0.01-19.46 9.06c-4.86 6.05-7.29 14.77-7.29 25.31q0 13.73 7.4 22.49c4.93 5.83 14.6 8.39 23.19 8.39 29.95 0 29.6-25.68 29.6-25.68v-59.11c0 0-16.37-1.75-16.36 11.41zm-3.13 55.04q-3.57 5.1-10.43 5.1-6.85-0.01-10.23-5.13c-2.25-3.43-3.37-8.41-3.37-14.11q0-7.94 3.31-13.29 3.31-5.36 10.4-5.36 4.65 0 8.17 2.94c3.81 3.25 5.73 9.09 5.73 16.64q-0.01 8.11-3.58 13.21z"/>
	</g>
	<path class="s2" d="m374.75 114.66c-13.4-0.63-20.16 2.56-24.57 5.93-6.09 4.65-9.8 11.53-9.8 22.52v56.51h7.88c2.11 0 4.22-0.73 5.77-2.16q2.61-2.41 2.61-5.86v-21.12c1.92 3.31 4.45 5.74 7.65 7.32q4.54 2.12 10.51 2.12 11.24 0.01 18.41-8.97 7.17-9.21 7.17-24.06c0-9.91-2.26-16.97-7.68-23.57-4.38-5.34-11.04-8.35-17.95-8.66zm5.55 46.38q-3.59 4.96-9.8 4.96-6.69 0.01-10.28-4.96c-2.39-2.99-3.59-7.45-3.59-13.45q0-9.65 3.34-14.15 3.6-4.95 10.05-4.96c4.3 0 7.89 1.66 10.28 4.96q3.59 4.96 3.59 14.15c0 5.68-1.19 10.14-3.59 13.45z"/>
	<path class="s2" d="m514.47 120.49c-5.53-4.19-11.18-6.38-20.89-6.12-9.86 0.27-17.03 3.03-21.49 9.07q-6.69 9.08-6.68 23.68 0 12.49 5.04 20.17 5.05 7.66 12.1 10.47 7.02 2.83 14.2 1.19 7.16-1.65 11.39-8.24v3.99q-0.48 7.54-3.63 11.32-3.18 3.76-7.06 4.59c-2.56 0.54-5.16 0.24-7.73-0.95q-3.88-1.76-5.75-5.06h-17.14c4.44 13.34 12.41 19.23 26.77 20.27 23.16 1.67 30.54-17.94 30.52-28.52v-33.25c0-10.99-3.58-18.03-9.63-22.63zm-6.81 32.66q-0.94 5.53-3.06 8.12-4.47 6.11-13.84 4.37-9.4-1.78-9.4-18.03-0.01-7.54 2.82-13.45 2.82-5.88 10.79-5.89 5.87 0.01 8.92 4.24 3.07 4.24 3.88 9.67 0.82 5.42-0.12 10.96z"/>
	<path class="s2" d="m451.49 118.84q-7.94-4.02-18.15-4.03-15.7 0-22.15 8.19-4.05 5.22-4.58 13.36h15.65q0.57-3.59 2.3-5.68 2.42-2.84 8.23-2.85 5.2 0 7.88 1.45 2.67 1.45 2.67 5.26 0 3.13-3.49 4.6-1.95 0.85-6.48 1.42l-5.54 0.67q-9.47 1.2-14.31 3.99-8.89 5.11-8.88 16.54-0.01 8.81 5.52 13.61c3.67 3.21 8.34 4.55 13.99 4.81 35.36 1.58 34.96-18.64 35.28-22.84v-23.27q0.01-11.19-7.92-15.24zm-8.22 35.31c-0.1 5.43-1.66 9.15-4.63 11.2q-4.47 3.07-9.78 3.07-3.35-0.01-5.7-1.85-2.34-1.85-2.34-6 0-4.65 3.83-6.87 2.27-1.31 7.45-2.2l3.7-0.68q2.77-0.52 4.33-1.12 1.6-0.59 3.14-1.56v6.03z"/>
	<path class="s2" d="m585.61 123.97q-7.83-9.81-23.76-9.81-15.92-0.01-23.73 9.81-7.83 9.79-7.83 23.15c0 8.91 2.61 16.8 7.83 23.25q7.82 9.64 23.73 9.64 15.91-0.01 23.76-9.64 7.81-9.67 7.81-23.25c0-9.06-2.6-16.62-7.81-23.15zm-12.93 37.46q-3.79 5.05-10.87 5.05-7.08 0-10.91-5.05-3.83-5.03-3.83-14.31-0.01-9.28 3.83-14.29 3.81-5.01 10.91-5.01 7.09 0 10.87 5.01 3.79 5.01 3.79 14.29 0 9.28-3.79 14.31z"/>
</svg>